<?xml version="1.0" encoding="UTF-8" standalone="no"?>
<!DOCTYPE svg PUBLIC "-//W3C//DTD SVG 1.1//EN"
 "http://www.w3.org/Graphics/SVG/1.1/DTD/svg11.dtd">
<!-- Generated by graphviz version 2.49.3 (20211023.0002)
 -->
<!-- Pages: 1 -->
<svg width="2579pt" height="416pt"
 viewBox="0.00 0.00 2578.50 416.00" xmlns="http://www.w3.org/2000/svg" xmlns:xlink="http://www.w3.org/1999/xlink">
<g id="graph0" class="graph" transform="scale(1 1) rotate(0) translate(4 412)">
<polygon fill="white" stroke="transparent" points="-4,4 -4,-412 2574.5,-412 2574.5,4 -4,4"/>
<!-- Pacgagagantix -->
<g id="node1" class="node">
<title>Pacgagagantix</title>
<polygon fill="none" stroke="black" points="1102,-408 1006,-408 1006,-370 1102,-370 1102,-408"/>
<text text-anchor="start" x="1014" y="-392.8" font-family="Times New Roman,serif" font-size="14.00">Pacgagagantix</text>
<text text-anchor="start" x="1025" y="-377.8" font-family="Times New Roman,serif" font-size="14.00">330860,00</text>
</g>
<!-- Altrenratix -->
<g id="node2" class="node">
<title>Altrenratix</title>
<polygon fill="none" stroke="black" points="422,-334 348,-334 348,-296 422,-296 422,-334"/>
<text text-anchor="start" x="356" y="-318.8" font-family="Times New Roman,serif" font-size="14.00">Altrenratix</text>
<text text-anchor="start" x="362.5" y="-303.8" font-family="Times New Roman,serif" font-size="14.00">4326,00</text>
</g>
<!-- Pacgagagantix&#45;&gt;Altrenratix -->
<g id="edge1" class="edge">
<title>Pacgagagantix&#45;&gt;Altrenratix</title>
<path fill="none" stroke="black" d="M1005.89,-382.82C882.31,-369.52 554.87,-334.28 432.25,-321.09"/>
<polygon fill="black" stroke="black" points="432.38,-317.58 422.06,-319.99 431.63,-324.54 432.38,-317.58"/>
</g>
<!-- Biroverhilex -->
<g id="node13" class="node">
<title>Biroverhilex</title>
<polygon fill="none" stroke="black" points="912.5,-334 829.5,-334 829.5,-296 912.5,-296 912.5,-334"/>
<text text-anchor="start" x="837.5" y="-318.8" font-family="Times New Roman,serif" font-size="14.00">Biroverhilex</text>
<text text-anchor="start" x="848.5" y="-303.8" font-family="Times New Roman,serif" font-size="14.00">3460,00</text>
</g>
<!-- Pacgagagantix&#45;&gt;Biroverhilex -->
<g id="edge12" class="edge">
<title>Pacgagagantix&#45;&gt;Biroverhilex</title>
<path fill="none" stroke="black" d="M1007.82,-369.83C981.79,-359.59 949.22,-346.78 922.39,-336.22"/>
<polygon fill="black" stroke="black" points="923.37,-332.84 912.78,-332.44 920.81,-339.36 923.37,-332.84"/>
</g>
<!-- Kragefux -->
<g id="node14" class="node">
<title>Kragefux</title>
<polygon fill="none" stroke="black" points="999,-334 931,-334 931,-296 999,-296 999,-334"/>
<text text-anchor="start" x="939" y="-318.8" font-family="Times New Roman,serif" font-size="14.00">Kragefux</text>
<text text-anchor="start" x="942.5" y="-303.8" font-family="Times New Roman,serif" font-size="14.00">5837,00</text>
</g>
<!-- Pacgagagantix&#45;&gt;Kragefux -->
<g id="edge13" class="edge">
<title>Pacgagagantix&#45;&gt;Kragefux</title>
<path fill="none" stroke="black" d="M1031.54,-369.83C1020.58,-360.96 1007.23,-350.16 995.37,-340.57"/>
<polygon fill="black" stroke="black" points="997.43,-337.73 987.45,-334.16 993.02,-343.17 997.43,-337.73"/>
</g>
<!-- Nepflegux -->
<g id="node15" class="node">
<title>Nepflegux</title>
<polygon fill="none" stroke="black" points="1091,-334 1017,-334 1017,-296 1091,-296 1091,-334"/>
<text text-anchor="start" x="1025" y="-318.8" font-family="Times New Roman,serif" font-size="14.00">Nepflegux</text>
<text text-anchor="start" x="1031.5" y="-303.8" font-family="Times New Roman,serif" font-size="14.00">4182,00</text>
</g>
<!-- Pacgagagantix&#45;&gt;Nepflegux -->
<g id="edge14" class="edge">
<title>Pacgagagantix&#45;&gt;Nepflegux</title>
<path fill="none" stroke="black" d="M1054,-369.83C1054,-362.13 1054,-352.97 1054,-344.42"/>
<polygon fill="black" stroke="black" points="1057.5,-344.41 1054,-334.41 1050.5,-344.41 1057.5,-344.41"/>
</g>
<!-- Prepverganveraux -->
<g id="node21" class="node">
<title>Prepverganveraux</title>
<polygon fill="none" stroke="black" points="1339,-334 1223,-334 1223,-296 1339,-296 1339,-334"/>
<text text-anchor="start" x="1231" y="-318.8" font-family="Times New Roman,serif" font-size="14.00">Prepverganveraux</text>
<text text-anchor="start" x="1258.5" y="-303.8" font-family="Times New Roman,serif" font-size="14.00">5498,00</text>
</g>
<!-- Pacgagagantix&#45;&gt;Prepverganveraux -->
<g id="edge20" class="edge">
<title>Pacgagagantix&#45;&gt;Prepverganveraux</title>
<path fill="none" stroke="black" d="M1102.14,-372.73C1134.74,-362.39 1178.24,-348.59 1214.18,-337.19"/>
<polygon fill="black" stroke="black" points="1215.63,-340.41 1224.1,-334.05 1213.51,-333.73 1215.63,-340.41"/>
</g>
<!-- Specumiunnfux -->
<g id="node50" class="node">
<title>Specumiunnfux</title>
<polygon fill="none" stroke="black" points="1461,-334 1357,-334 1357,-296 1461,-296 1461,-334"/>
<text text-anchor="start" x="1365" y="-318.8" font-family="Times New Roman,serif" font-size="14.00">Specumiunnfux</text>
<text text-anchor="start" x="1386.5" y="-303.8" font-family="Times New Roman,serif" font-size="14.00">6488,00</text>
</g>
<!-- Pacgagagantix&#45;&gt;Specumiunnfux -->
<g id="edge49" class="edge">
<title>Pacgagagantix&#45;&gt;Specumiunnfux</title>
<path fill="none" stroke="black" d="M1102.19,-380.75C1158.64,-371.9 1255.11,-355.67 1346.85,-334.15"/>
<polygon fill="black" stroke="black" points="1347.93,-337.49 1356.85,-331.78 1346.32,-330.68 1347.93,-337.49"/>
</g>
<!-- Thorpanflimmux -->
<g id="node51" class="node">
<title>Thorpanflimmux</title>
<polygon fill="none" stroke="black" points="1589,-334 1479,-334 1479,-296 1589,-296 1589,-334"/>
<text text-anchor="start" x="1487" y="-318.8" font-family="Times New Roman,serif" font-size="14.00">Thorpanflimmux</text>
<text text-anchor="start" x="1511.5" y="-303.8" font-family="Times New Roman,serif" font-size="14.00">2967,00</text>
</g>
<!-- Pacgagagantix&#45;&gt;Thorpanflimmux -->
<g id="edge50" class="edge">
<title>Pacgagagantix&#45;&gt;Thorpanflimmux</title>
<path fill="none" stroke="black" d="M1102.1,-384.04C1178.13,-377.29 1330.8,-361.7 1469.04,-334.04"/>
<polygon fill="black" stroke="black" points="1469.86,-337.44 1478.97,-332.03 1468.47,-330.58 1469.86,-337.44"/>
</g>
<!-- Atricintrovalmux -->
<g id="node3" class="node">
<title>Atricintrovalmux</title>
<polygon fill="none" stroke="black" points="110,-260 0,-260 0,-222 110,-222 110,-260"/>
<text text-anchor="start" x="8" y="-244.8" font-family="Times New Roman,serif" font-size="14.00">Atricintrovalmux</text>
<text text-anchor="start" x="32.5" y="-229.8" font-family="Times New Roman,serif" font-size="14.00">3085,00</text>
</g>
<!-- Altrenratix&#45;&gt;Atricintrovalmux -->
<g id="edge2" class="edge">
<title>Altrenratix&#45;&gt;Atricintrovalmux</title>
<path fill="none" stroke="black" d="M347.8,-307.35C298.06,-298.25 206.96,-280.91 119.87,-260.13"/>
<polygon fill="black" stroke="black" points="120.63,-256.71 110.09,-257.77 118.99,-263.52 120.63,-256.71"/>
</g>
<!-- Atritorrenlax -->
<g id="node4" class="node">
<title>Atritorrenlax</title>
<polygon fill="none" stroke="black" points="214,-260 128,-260 128,-222 214,-222 214,-260"/>
<text text-anchor="start" x="136" y="-244.8" font-family="Times New Roman,serif" font-size="14.00">Atritorrenlax</text>
<text text-anchor="start" x="148.5" y="-229.8" font-family="Times New Roman,serif" font-size="14.00">6330,00</text>
</g>
<!-- Altrenratix&#45;&gt;Atritorrenlax -->
<g id="edge3" class="edge">
<title>Altrenratix&#45;&gt;Atritorrenlax</title>
<path fill="none" stroke="black" d="M347.96,-301.79C317.16,-291.6 271.91,-276.57 223.78,-260.25"/>
<polygon fill="black" stroke="black" points="224.71,-256.87 214.12,-256.97 222.46,-263.5 224.71,-256.87"/>
</g>
<!-- Flerfleeestiatox -->
<g id="node5" class="node">
<title>Flerfleeestiatox</title>
<polygon fill="none" stroke="black" points="333.5,-260 232.5,-260 232.5,-222 333.5,-222 333.5,-260"/>
<text text-anchor="start" x="240.5" y="-244.8" font-family="Times New Roman,serif" font-size="14.00">Flerfleeestiatox</text>
<text text-anchor="start" x="260.5" y="-229.8" font-family="Times New Roman,serif" font-size="14.00">5342,00</text>
</g>
<!-- Altrenratix&#45;&gt;Flerfleeestiatox -->
<g id="edge4" class="edge">
<title>Altrenratix&#45;&gt;Flerfleeestiatox</title>
<path fill="none" stroke="black" d="M359.26,-295.83C346.46,-286.79 330.81,-275.75 317.03,-266.02"/>
<polygon fill="black" stroke="black" points="318.92,-263.07 308.73,-260.16 314.88,-268.79 318.92,-263.07"/>
</g>
<!-- Frintosix -->
<g id="node10" class="node">
<title>Frintosix</title>
<polygon fill="none" stroke="black" points="418,-260 352,-260 352,-222 418,-222 418,-260"/>
<text text-anchor="start" x="360" y="-244.8" font-family="Times New Roman,serif" font-size="14.00">Frintosix</text>
<text text-anchor="start" x="362.5" y="-229.8" font-family="Times New Roman,serif" font-size="14.00">3968,00</text>
</g>
<!-- Altrenratix&#45;&gt;Frintosix -->
<g id="edge9" class="edge">
<title>Altrenratix&#45;&gt;Frintosix</title>
<path fill="none" stroke="black" d="M385,-295.83C385,-288.13 385,-278.97 385,-270.42"/>
<polygon fill="black" stroke="black" points="388.5,-270.41 385,-260.41 381.5,-270.41 388.5,-270.41"/>
</g>
<!-- Kratrogerflex -->
<g id="node11" class="node">
<title>Kratrogerflex</title>
<polygon fill="none" stroke="black" points="526,-260 436,-260 436,-222 526,-222 526,-260"/>
<text text-anchor="start" x="444" y="-244.8" font-family="Times New Roman,serif" font-size="14.00">Kratrogerflex</text>
<text text-anchor="start" x="458.5" y="-229.8" font-family="Times New Roman,serif" font-size="14.00">3568,00</text>
</g>
<!-- Altrenratix&#45;&gt;Kratrogerflex -->
<g id="edge10" class="edge">
<title>Altrenratix&#45;&gt;Kratrogerflex</title>
<path fill="none" stroke="black" d="M409.22,-295.83C421.16,-286.88 435.73,-275.96 448.61,-266.3"/>
<polygon fill="black" stroke="black" points="450.88,-268.96 456.78,-260.16 446.68,-263.36 450.88,-268.96"/>
</g>
<!-- Nepcinhideninax -->
<g id="node12" class="node">
<title>Nepcinhideninax</title>
<polygon fill="none" stroke="black" points="653.5,-260 544.5,-260 544.5,-222 653.5,-222 653.5,-260"/>
<text text-anchor="start" x="552.5" y="-244.8" font-family="Times New Roman,serif" font-size="14.00">Nepcinhideninax</text>
<text text-anchor="start" x="576.5" y="-229.8" font-family="Times New Roman,serif" font-size="14.00">5531,00</text>
</g>
<!-- Altrenratix&#45;&gt;Nepcinhideninax -->
<g id="edge11" class="edge">
<title>Altrenratix&#45;&gt;Nepcinhideninax</title>
<path fill="none" stroke="black" d="M422.28,-301.46C453.5,-290.95 498.74,-275.73 535.63,-263.32"/>
<polygon fill="black" stroke="black" points="536.95,-266.57 545.31,-260.06 534.72,-259.94 536.95,-266.57"/>
</g>
<!-- Gorhibleplax -->
<g id="node6" class="node">
<title>Gorhibleplax</title>
<polygon fill="none" stroke="black" points="174.5,-186 85.5,-186 85.5,-148 174.5,-148 174.5,-186"/>
<text text-anchor="start" x="93.5" y="-170.8" font-family="Times New Roman,serif" font-size="14.00">Gorhibleplax</text>
<text text-anchor="start" x="107.5" y="-155.8" font-family="Times New Roman,serif" font-size="14.00">6356,00</text>
</g>
<!-- Flerfleeestiatox&#45;&gt;Gorhibleplax -->
<g id="edge5" class="edge">
<title>Flerfleeestiatox&#45;&gt;Gorhibleplax</title>
<path fill="none" stroke="black" d="M244.39,-221.83C224.11,-212.29 199.08,-200.51 177.6,-190.4"/>
<polygon fill="black" stroke="black" points="178.87,-187.13 168.33,-186.04 175.89,-193.46 178.87,-187.13"/>
</g>
<!-- Mirtrensix -->
<g id="node7" class="node">
<title>Mirtrensix</title>
<polygon fill="none" stroke="black" points="265.5,-186 192.5,-186 192.5,-148 265.5,-148 265.5,-186"/>
<text text-anchor="start" x="200.5" y="-170.8" font-family="Times New Roman,serif" font-size="14.00">Mirtrensix</text>
<text text-anchor="start" x="206.5" y="-155.8" font-family="Times New Roman,serif" font-size="14.00">3020,00</text>
</g>
<!-- Flerfleeestiatox&#45;&gt;Mirtrensix -->
<g id="edge6" class="edge">
<title>Flerfleeestiatox&#45;&gt;Mirtrensix</title>
<path fill="none" stroke="black" d="M269.37,-221.83C263.15,-213.54 255.67,-203.56 248.84,-194.45"/>
<polygon fill="black" stroke="black" points="251.61,-192.31 242.81,-186.41 246.01,-196.51 251.61,-192.31"/>
</g>
<!-- Morgbarflimgex -->
<g id="node8" class="node">
<title>Morgbarflimgex</title>
<polygon fill="none" stroke="black" points="390,-186 284,-186 284,-148 390,-148 390,-186"/>
<text text-anchor="start" x="292" y="-170.8" font-family="Times New Roman,serif" font-size="14.00">Morgbarflimgex</text>
<text text-anchor="start" x="314.5" y="-155.8" font-family="Times New Roman,serif" font-size="14.00">4370,00</text>
</g>
<!-- Flerfleeestiatox&#45;&gt;Morgbarflimgex -->
<g id="edge7" class="edge">
<title>Flerfleeestiatox&#45;&gt;Morgbarflimgex</title>
<path fill="none" stroke="black" d="M296.63,-221.83C302.85,-213.54 310.33,-203.56 317.16,-194.45"/>
<polygon fill="black" stroke="black" points="319.99,-196.51 323.19,-186.41 314.39,-192.31 319.99,-196.51"/>
</g>
<!-- Morgtrocaptex -->
<g id="node9" class="node">
<title>Morgtrocaptex</title>
<polygon fill="none" stroke="black" points="508,-186 408,-186 408,-148 508,-148 508,-186"/>
<text text-anchor="start" x="416" y="-170.8" font-family="Times New Roman,serif" font-size="14.00">Morgtrocaptex</text>
<text text-anchor="start" x="435.5" y="-155.8" font-family="Times New Roman,serif" font-size="14.00">5438,00</text>
</g>
<!-- Flerfleeestiatox&#45;&gt;Morgtrocaptex -->
<g id="edge8" class="edge">
<title>Flerfleeestiatox&#45;&gt;Morgtrocaptex</title>
<path fill="none" stroke="black" d="M327.16,-221.83C350.77,-212.12 380.02,-200.08 404.87,-189.86"/>
<polygon fill="black" stroke="black" points="406.24,-193.08 414.16,-186.04 403.58,-186.61 406.24,-193.08"/>
</g>
<!-- Critrogaumistax -->
<g id="node16" class="node">
<title>Critrogaumistax</title>
<polygon fill="none" stroke="black" points="776.5,-260 671.5,-260 671.5,-222 776.5,-222 776.5,-260"/>
<text text-anchor="start" x="679.5" y="-244.8" font-family="Times New Roman,serif" font-size="14.00">Critrogaumistax</text>
<text text-anchor="start" x="701.5" y="-229.8" font-family="Times New Roman,serif" font-size="14.00">6308,00</text>
</g>
<!-- Nepflegux&#45;&gt;Critrogaumistax -->
<g id="edge15" class="edge">
<title>Nepflegux&#45;&gt;Critrogaumistax</title>
<path fill="none" stroke="black" d="M1016.82,-298.69C1013.86,-297.7 1010.9,-296.79 1008,-296 914.6,-270.46 885.33,-281.24 786.44,-259.92"/>
<polygon fill="black" stroke="black" points="787.17,-256.5 776.65,-257.76 785.66,-263.34 787.17,-256.5"/>
</g>
<!-- Frinbloscasix -->
<g id="node17" class="node">
<title>Frinbloscasix</title>
<polygon fill="none" stroke="black" points="887,-260 795,-260 795,-222 887,-222 887,-260"/>
<text text-anchor="start" x="803" y="-244.8" font-family="Times New Roman,serif" font-size="14.00">Frinbloscasix</text>
<text text-anchor="start" x="818.5" y="-229.8" font-family="Times New Roman,serif" font-size="14.00">3212,00</text>
</g>
<!-- Nepflegux&#45;&gt;Frinbloscasix -->
<g id="edge16" class="edge">
<title>Nepflegux&#45;&gt;Frinbloscasix</title>
<path fill="none" stroke="black" d="M1016.92,-299.26C1013.91,-298.14 1010.91,-297.04 1008,-296 961.53,-279.46 947.33,-276.44 896.73,-260.21"/>
<polygon fill="black" stroke="black" points="897.8,-256.88 887.21,-257.14 895.65,-263.54 897.8,-256.88"/>
</g>
<!-- Morgtoclox -->
<g id="node18" class="node">
<title>Morgtoclox</title>
<polygon fill="none" stroke="black" points="988.5,-260 905.5,-260 905.5,-222 988.5,-222 988.5,-260"/>
<text text-anchor="start" x="913.5" y="-244.8" font-family="Times New Roman,serif" font-size="14.00">Morgtoclox</text>
<text text-anchor="start" x="924.5" y="-229.8" font-family="Times New Roman,serif" font-size="14.00">2645,00</text>
</g>
<!-- Nepflegux&#45;&gt;Morgtoclox -->
<g id="edge17" class="edge">
<title>Nepflegux&#45;&gt;Morgtoclox</title>
<path fill="none" stroke="black" d="M1027,-295.83C1013.57,-286.79 997.15,-275.75 982.7,-266.02"/>
<polygon fill="black" stroke="black" points="984.24,-262.84 973.99,-260.16 980.33,-268.65 984.24,-262.84"/>
</g>
<!-- Pacbarverpox -->
<g id="node19" class="node">
<title>Pacbarverpox</title>
<polygon fill="none" stroke="black" points="1101.5,-260 1006.5,-260 1006.5,-222 1101.5,-222 1101.5,-260"/>
<text text-anchor="start" x="1014.5" y="-244.8" font-family="Times New Roman,serif" font-size="14.00">Pacbarverpox</text>
<text text-anchor="start" x="1031.5" y="-229.8" font-family="Times New Roman,serif" font-size="14.00">2474,00</text>
</g>
<!-- Nepflegux&#45;&gt;Pacbarverpox -->
<g id="edge18" class="edge">
<title>Nepflegux&#45;&gt;Pacbarverpox</title>
<path fill="none" stroke="black" d="M1054,-295.83C1054,-288.13 1054,-278.97 1054,-270.42"/>
<polygon fill="black" stroke="black" points="1057.5,-270.41 1054,-260.41 1050.5,-270.41 1057.5,-270.41"/>
</g>
<!-- Prepbarvalmux -->
<g id="node20" class="node">
<title>Prepbarvalmux</title>
<polygon fill="none" stroke="black" points="1220.5,-260 1119.5,-260 1119.5,-222 1220.5,-222 1220.5,-260"/>
<text text-anchor="start" x="1127.5" y="-244.8" font-family="Times New Roman,serif" font-size="14.00">Prepbarvalmux</text>
<text text-anchor="start" x="1147.5" y="-229.8" font-family="Times New Roman,serif" font-size="14.00">5812,00</text>
</g>
<!-- Nepflegux&#45;&gt;Prepbarvalmux -->
<g id="edge19" class="edge">
<title>Nepflegux&#45;&gt;Prepbarvalmux</title>
<path fill="none" stroke="black" d="M1083.27,-295.83C1098.11,-286.62 1116.3,-275.33 1132.19,-265.47"/>
<polygon fill="black" stroke="black" points="1134.09,-268.41 1140.74,-260.16 1130.4,-262.46 1134.09,-268.41"/>
</g>
<!-- Critopanvax -->
<g id="node22" class="node">
<title>Critopanvax</title>
<polygon fill="none" stroke="black" points="1323.5,-260 1238.5,-260 1238.5,-222 1323.5,-222 1323.5,-260"/>
<text text-anchor="start" x="1246.5" y="-244.8" font-family="Times New Roman,serif" font-size="14.00">Critopanvax</text>
<text text-anchor="start" x="1258.5" y="-229.8" font-family="Times New Roman,serif" font-size="14.00">2808,00</text>
</g>
<!-- Prepverganveraux&#45;&gt;Critopanvax -->
<g id="edge21" class="edge">
<title>Prepverganveraux&#45;&gt;Critopanvax</title>
<path fill="none" stroke="black" d="M1281,-295.83C1281,-288.13 1281,-278.97 1281,-270.42"/>
<polygon fill="black" stroke="black" points="1284.5,-270.41 1281,-260.41 1277.5,-270.41 1284.5,-270.41"/>
</g>
<!-- Crongeptix -->
<g id="node23" class="node">
<title>Crongeptix</title>
<polygon fill="none" stroke="black" points="1420.5,-260 1341.5,-260 1341.5,-222 1420.5,-222 1420.5,-260"/>
<text text-anchor="start" x="1349.5" y="-244.8" font-family="Times New Roman,serif" font-size="14.00">Crongeptix</text>
<text text-anchor="start" x="1358.5" y="-229.8" font-family="Times New Roman,serif" font-size="14.00">5010,00</text>
</g>
<!-- Prepverganveraux&#45;&gt;Crongeptix -->
<g id="edge22" class="edge">
<title>Prepverganveraux&#45;&gt;Crongeptix</title>
<path fill="none" stroke="black" d="M1306.23,-295.83C1318.79,-286.79 1334.13,-275.75 1347.64,-266.02"/>
<polygon fill="black" stroke="black" points="1349.7,-268.85 1355.77,-260.16 1345.61,-263.17 1349.7,-268.85"/>
</g>
<!-- Klogemax -->
<g id="node34" class="node">
<title>Klogemax</title>
<polygon fill="none" stroke="black" points="1896.5,-260 1823.5,-260 1823.5,-222 1896.5,-222 1896.5,-260"/>
<text text-anchor="start" x="1831.5" y="-244.8" font-family="Times New Roman,serif" font-size="14.00">Klogemax</text>
<text text-anchor="start" x="1837.5" y="-229.8" font-family="Times New Roman,serif" font-size="14.00">6806,00</text>
</g>
<!-- Prepverganveraux&#45;&gt;Klogemax -->
<g id="edge33" class="edge">
<title>Prepverganveraux&#45;&gt;Klogemax</title>
<path fill="none" stroke="black" d="M1339.34,-297.75C1342.26,-297.12 1345.16,-296.53 1348,-296 1517.69,-264.46 1722.71,-249.78 1813.2,-244.47"/>
<polygon fill="black" stroke="black" points="1813.62,-247.95 1823.4,-243.88 1813.22,-240.96 1813.62,-247.95"/>
</g>
<!-- Rimbarulatrokox -->
<g id="node49" class="node">
<title>Rimbarulatrokox</title>
<polygon fill="none" stroke="black" points="2025,-260 1915,-260 1915,-222 2025,-222 2025,-260"/>
<text text-anchor="start" x="1923" y="-244.8" font-family="Times New Roman,serif" font-size="14.00">Rimbarulatrokox</text>
<text text-anchor="start" x="1947.5" y="-229.8" font-family="Times New Roman,serif" font-size="14.00">6211,00</text>
</g>
<!-- Prepverganveraux&#45;&gt;Rimbarulatrokox -->
<g id="edge48" class="edge">
<title>Prepverganveraux&#45;&gt;Rimbarulatrokox</title>
<path fill="none" stroke="black" d="M1339.32,-297.6C1342.24,-297.01 1345.15,-296.47 1348,-296 1592.76,-255.62 1660.39,-301.32 1905,-260 1905.1,-259.98 1905.2,-259.97 1905.3,-259.95"/>
<polygon fill="black" stroke="black" points="1905.7,-263.44 1914.86,-258.1 1904.37,-256.56 1905.7,-263.44"/>
</g>
<!-- Crivinstiinox -->
<g id="node24" class="node">
<title>Crivinstiinox</title>
<polygon fill="none" stroke="black" points="1001.5,-186 914.5,-186 914.5,-148 1001.5,-148 1001.5,-186"/>
<text text-anchor="start" x="922.5" y="-170.8" font-family="Times New Roman,serif" font-size="14.00">Crivinstiinox</text>
<text text-anchor="start" x="935.5" y="-155.8" font-family="Times New Roman,serif" font-size="14.00">2493,00</text>
</g>
<!-- Crongeptix&#45;&gt;Crivinstiinox -->
<g id="edge23" class="edge">
<title>Crongeptix&#45;&gt;Crivinstiinox</title>
<path fill="none" stroke="black" d="M1341.4,-224.55C1338.25,-223.59 1335.09,-222.73 1332,-222 1195.42,-189.75 1153.01,-216.03 1011.65,-185.84"/>
<polygon fill="black" stroke="black" points="1012.27,-182.39 1001.75,-183.67 1010.77,-189.23 1012.27,-182.39"/>
</g>
<!-- Docvalhigex -->
<g id="node25" class="node">
<title>Docvalhigex</title>
<polygon fill="none" stroke="black" points="1106,-186 1020,-186 1020,-148 1106,-148 1106,-186"/>
<text text-anchor="start" x="1028" y="-170.8" font-family="Times New Roman,serif" font-size="14.00">Docvalhigex</text>
<text text-anchor="start" x="1040.5" y="-155.8" font-family="Times New Roman,serif" font-size="14.00">5801,00</text>
</g>
<!-- Crongeptix&#45;&gt;Docvalhigex -->
<g id="edge24" class="edge">
<title>Crongeptix&#45;&gt;Docvalhigex</title>
<path fill="none" stroke="black" d="M1341.35,-224.73C1338.21,-223.73 1335.07,-222.81 1332,-222 1240.52,-197.84 1211.61,-209.27 1116.02,-186.02"/>
<polygon fill="black" stroke="black" points="1116.8,-182.61 1106.25,-183.58 1115.1,-189.4 1116.8,-182.61"/>
</g>
<!-- Kloganbarmocnox -->
<g id="node30" class="node">
<title>Kloganbarmocnox</title>
<polygon fill="none" stroke="black" points="1244,-186 1124,-186 1124,-148 1244,-148 1244,-186"/>
<text text-anchor="start" x="1132" y="-170.8" font-family="Times New Roman,serif" font-size="14.00">Kloganbarmocnox</text>
<text text-anchor="start" x="1161.5" y="-155.8" font-family="Times New Roman,serif" font-size="14.00">5307,00</text>
</g>
<!-- Crongeptix&#45;&gt;Kloganbarmocnox -->
<g id="edge29" class="edge">
<title>Crongeptix&#45;&gt;Kloganbarmocnox</title>
<path fill="none" stroke="black" d="M1341.42,-225.45C1338.23,-224.28 1335.06,-223.12 1332,-222 1302.83,-211.32 1270.42,-199.49 1243.38,-189.63"/>
<polygon fill="black" stroke="black" points="1244.27,-186.23 1233.68,-186.1 1241.88,-192.81 1244.27,-186.23"/>
</g>
<!-- Morgtrotorvinpex -->
<g id="node31" class="node">
<title>Morgtrotorvinpex</title>
<polygon fill="none" stroke="black" points="1378,-186 1262,-186 1262,-148 1378,-148 1378,-186"/>
<text text-anchor="start" x="1270" y="-170.8" font-family="Times New Roman,serif" font-size="14.00">Morgtrotorvinpex</text>
<text text-anchor="start" x="1297.5" y="-155.8" font-family="Times New Roman,serif" font-size="14.00">4410,00</text>
</g>
<!-- Crongeptix&#45;&gt;Morgtrotorvinpex -->
<g id="edge30" class="edge">
<title>Crongeptix&#45;&gt;Morgtrotorvinpex</title>
<path fill="none" stroke="black" d="M1365.61,-221.83C1358.51,-213.45 1349.95,-203.35 1342.18,-194.17"/>
<polygon fill="black" stroke="black" points="1344.73,-191.78 1335.6,-186.41 1339.39,-196.31 1344.73,-191.78"/>
</g>
<!-- Stropgankox -->
<g id="node32" class="node">
<title>Stropgankox</title>
<polygon fill="none" stroke="black" points="1485.5,-186 1396.5,-186 1396.5,-148 1485.5,-148 1485.5,-186"/>
<text text-anchor="start" x="1404.5" y="-170.8" font-family="Times New Roman,serif" font-size="14.00">Stropgankox</text>
<text text-anchor="start" x="1418.5" y="-155.8" font-family="Times New Roman,serif" font-size="14.00">5556,00</text>
</g>
<!-- Crongeptix&#45;&gt;Stropgankox -->
<g id="edge31" class="edge">
<title>Crongeptix&#45;&gt;Stropgankox</title>
<path fill="none" stroke="black" d="M1396.14,-221.83C1403.12,-213.45 1411.54,-203.35 1419.19,-194.17"/>
<polygon fill="black" stroke="black" points="1421.94,-196.34 1425.66,-186.41 1416.56,-191.85 1421.94,-196.34"/>
</g>
<!-- Tripflegnimontox -->
<g id="node33" class="node">
<title>Tripflegnimontox</title>
<polygon fill="none" stroke="black" points="1616.5,-186 1503.5,-186 1503.5,-148 1616.5,-148 1616.5,-186"/>
<text text-anchor="start" x="1511.5" y="-170.8" font-family="Times New Roman,serif" font-size="14.00">Tripflegnimontox</text>
<text text-anchor="start" x="1537.5" y="-155.8" font-family="Times New Roman,serif" font-size="14.00">5040,00</text>
</g>
<!-- Crongeptix&#45;&gt;Tripflegnimontox -->
<g id="edge32" class="edge">
<title>Crongeptix&#45;&gt;Tripflegnimontox</title>
<path fill="none" stroke="black" d="M1420.73,-224.02C1445.69,-213.98 1478.24,-200.89 1505.59,-189.88"/>
<polygon fill="black" stroke="black" points="1507.06,-193.07 1515.03,-186.09 1504.45,-186.57 1507.06,-193.07"/>
</g>
<!-- Diorstiflevix -->
<g id="node26" class="node">
<title>Diorstiflevix</title>
<polygon fill="none" stroke="black" points="927,-112 843,-112 843,-74 927,-74 927,-112"/>
<text text-anchor="start" x="851" y="-96.8" font-family="Times New Roman,serif" font-size="14.00">Diorstiflevix</text>
<text text-anchor="start" x="862.5" y="-81.8" font-family="Times New Roman,serif" font-size="14.00">5197,00</text>
</g>
<!-- Docvalhigex&#45;&gt;Diorstiflevix -->
<g id="edge25" class="edge">
<title>Docvalhigex&#45;&gt;Diorstiflevix</title>
<path fill="none" stroke="black" d="M1019.91,-148.57C994.8,-138.41 962.98,-125.54 936.55,-114.85"/>
<polygon fill="black" stroke="black" points="937.66,-111.53 927.08,-111.02 935.04,-118.01 937.66,-111.53"/>
</g>
<!-- Frintorcinmankix -->
<g id="node27" class="node">
<title>Frintorcinmankix</title>
<polygon fill="none" stroke="black" points="1056.5,-112 945.5,-112 945.5,-74 1056.5,-74 1056.5,-112"/>
<text text-anchor="start" x="953.5" y="-96.8" font-family="Times New Roman,serif" font-size="14.00">Frintorcinmankix</text>
<text text-anchor="start" x="978.5" y="-81.8" font-family="Times New Roman,serif" font-size="14.00">6274,00</text>
</g>
<!-- Docvalhigex&#45;&gt;Frintorcinmankix -->
<g id="edge26" class="edge">
<title>Docvalhigex&#45;&gt;Frintorcinmankix</title>
<path fill="none" stroke="black" d="M1047.35,-147.83C1040.14,-139.45 1031.44,-129.35 1023.54,-120.17"/>
<polygon fill="black" stroke="black" points="1026.03,-117.71 1016.86,-112.41 1020.73,-122.27 1026.03,-117.71"/>
</g>
<!-- Pachitomonrox -->
<g id="node28" class="node">
<title>Pachitomonrox</title>
<polygon fill="none" stroke="black" points="1177,-112 1075,-112 1075,-74 1177,-74 1177,-112"/>
<text text-anchor="start" x="1083" y="-96.8" font-family="Times New Roman,serif" font-size="14.00">Pachitomonrox</text>
<text text-anchor="start" x="1103.5" y="-81.8" font-family="Times New Roman,serif" font-size="14.00">3804,00</text>
</g>
<!-- Docvalhigex&#45;&gt;Pachitomonrox -->
<g id="edge27" class="edge">
<title>Docvalhigex&#45;&gt;Pachitomonrox</title>
<path fill="none" stroke="black" d="M1078.9,-147.83C1086.23,-139.45 1095.07,-129.35 1103.1,-120.17"/>
<polygon fill="black" stroke="black" points="1105.94,-122.24 1109.89,-112.41 1100.67,-117.63 1105.94,-122.24"/>
</g>
<!-- Prepcrabax -->
<g id="node29" class="node">
<title>Prepcrabax</title>
<polygon fill="none" stroke="black" points="1275,-112 1195,-112 1195,-74 1275,-74 1275,-112"/>
<text text-anchor="start" x="1203" y="-96.8" font-family="Times New Roman,serif" font-size="14.00">Prepcrabax</text>
<text text-anchor="start" x="1212.5" y="-81.8" font-family="Times New Roman,serif" font-size="14.00">3902,00</text>
</g>
<!-- Docvalhigex&#45;&gt;Prepcrabax -->
<g id="edge28" class="edge">
<title>Docvalhigex&#45;&gt;Prepcrabax</title>
<path fill="none" stroke="black" d="M1106.4,-147.83C1130.49,-137.75 1160.55,-125.16 1185.55,-114.7"/>
<polygon fill="black" stroke="black" points="1186.98,-117.89 1194.86,-110.8 1184.28,-111.44 1186.98,-117.89"/>
</g>
<!-- Altdriscaaaratox -->
<g id="node35" class="node">
<title>Altdriscaaaratox</title>
<polygon fill="none" stroke="black" points="1741.5,-186 1634.5,-186 1634.5,-148 1741.5,-148 1741.5,-186"/>
<text text-anchor="start" x="1642.5" y="-170.8" font-family="Times New Roman,serif" font-size="14.00">Altdriscaaaratox</text>
<text text-anchor="start" x="1665.5" y="-155.8" font-family="Times New Roman,serif" font-size="14.00">2701,00</text>
</g>
<!-- Klogemax&#45;&gt;Altdriscaaaratox -->
<g id="edge34" class="edge">
<title>Klogemax&#45;&gt;Altdriscaaaratox</title>
<path fill="none" stroke="black" d="M1823.1,-224.55C1799.1,-214.51 1767.43,-201.25 1740.78,-190.09"/>
<polygon fill="black" stroke="black" points="1741.79,-186.72 1731.22,-186.09 1739.09,-193.18 1741.79,-186.72"/>
</g>
<!-- Crivindribax -->
<g id="node36" class="node">
<title>Crivindribax</title>
<polygon fill="none" stroke="black" points="1846,-186 1760,-186 1760,-148 1846,-148 1846,-186"/>
<text text-anchor="start" x="1768" y="-170.8" font-family="Times New Roman,serif" font-size="14.00">Crivindribax</text>
<text text-anchor="start" x="1780.5" y="-155.8" font-family="Times New Roman,serif" font-size="14.00">6218,00</text>
</g>
<!-- Klogemax&#45;&gt;Crivindribax -->
<g id="edge35" class="edge">
<title>Klogemax&#45;&gt;Crivindribax</title>
<path fill="none" stroke="black" d="M1845.62,-221.83C1839.05,-213.54 1831.15,-203.56 1823.94,-194.45"/>
<polygon fill="black" stroke="black" points="1826.53,-192.08 1817.58,-186.41 1821.04,-196.43 1826.53,-192.08"/>
</g>
<!-- Cronunnpanpex -->
<g id="node37" class="node">
<title>Cronunnpanpex</title>
<polygon fill="none" stroke="black" points="1970,-186 1864,-186 1864,-148 1970,-148 1970,-186"/>
<text text-anchor="start" x="1872" y="-170.8" font-family="Times New Roman,serif" font-size="14.00">Cronunnpanpex</text>
<text text-anchor="start" x="1894.5" y="-155.8" font-family="Times New Roman,serif" font-size="14.00">5178,00</text>
</g>
<!-- Klogemax&#45;&gt;Cronunnpanpex -->
<g id="edge36" class="edge">
<title>Klogemax&#45;&gt;Cronunnpanpex</title>
<path fill="none" stroke="black" d="M1874.38,-221.83C1880.95,-213.54 1888.85,-203.56 1896.06,-194.45"/>
<polygon fill="black" stroke="black" points="1898.96,-196.43 1902.42,-186.41 1893.47,-192.08 1898.96,-196.43"/>
</g>
<!-- Diortroulamax -->
<g id="node38" class="node">
<title>Diortroulamax</title>
<polygon fill="none" stroke="black" points="2084,-186 1988,-186 1988,-148 2084,-148 2084,-186"/>
<text text-anchor="start" x="1996" y="-170.8" font-family="Times New Roman,serif" font-size="14.00">Diortroulamax</text>
<text text-anchor="start" x="2013.5" y="-155.8" font-family="Times New Roman,serif" font-size="14.00">2107,00</text>
</g>
<!-- Klogemax&#45;&gt;Diortroulamax -->
<g id="edge37" class="edge">
<title>Klogemax&#45;&gt;Diortroulamax</title>
<path fill="none" stroke="black" d="M1896.9,-224.91C1921.69,-214.76 1954.77,-201.23 1982.45,-189.91"/>
<polygon fill="black" stroke="black" points="1984.06,-193.03 1991.99,-186 1981.41,-186.55 1984.06,-193.03"/>
</g>
<!-- Gorvincrakix -->
<g id="node41" class="node">
<title>Gorvincrakix</title>
<polygon fill="none" stroke="black" points="2191.5,-186 2102.5,-186 2102.5,-148 2191.5,-148 2191.5,-186"/>
<text text-anchor="start" x="2110.5" y="-170.8" font-family="Times New Roman,serif" font-size="14.00">Gorvincrakix</text>
<text text-anchor="start" x="2124.5" y="-155.8" font-family="Times New Roman,serif" font-size="14.00">4833,00</text>
</g>
<!-- Klogemax&#45;&gt;Gorvincrakix -->
<g id="edge40" class="edge">
<title>Klogemax&#45;&gt;Gorvincrakix</title>
<path fill="none" stroke="black" d="M1896.7,-224.96C1899.82,-223.88 1902.95,-222.88 1906,-222 1984.29,-199.35 2009.27,-206.81 2092.46,-185.93"/>
<polygon fill="black" stroke="black" points="2093.53,-189.27 2102.35,-183.39 2091.79,-182.49 2093.53,-189.27"/>
</g>
<!-- Stropmanpaneepex -->
<g id="node42" class="node">
<title>Stropmanpaneepex</title>
<polygon fill="none" stroke="black" points="2334,-186 2210,-186 2210,-148 2334,-148 2334,-186"/>
<text text-anchor="start" x="2218" y="-170.8" font-family="Times New Roman,serif" font-size="14.00">Stropmanpaneepex</text>
<text text-anchor="start" x="2249.5" y="-155.8" font-family="Times New Roman,serif" font-size="14.00">5129,00</text>
</g>
<!-- Klogemax&#45;&gt;Stropmanpaneepex -->
<g id="edge41" class="edge">
<title>Klogemax&#45;&gt;Stropmanpaneepex</title>
<path fill="none" stroke="black" d="M1896.64,-224.73C1899.78,-223.71 1902.92,-222.78 1906,-222 2030.52,-190.55 2068.71,-209.05 2199.65,-185.9"/>
<polygon fill="black" stroke="black" points="2200.45,-189.31 2209.66,-184.08 2199.2,-182.43 2200.45,-189.31"/>
</g>
<!-- Gorflimrox -->
<g id="node39" class="node">
<title>Gorflimrox</title>
<polygon fill="none" stroke="black" points="1977.5,-112 1898.5,-112 1898.5,-74 1977.5,-74 1977.5,-112"/>
<text text-anchor="start" x="1906.5" y="-96.8" font-family="Times New Roman,serif" font-size="14.00">Gorflimrox</text>
<text text-anchor="start" x="1915.5" y="-81.8" font-family="Times New Roman,serif" font-size="14.00">5258,00</text>
</g>
<!-- Diortroulamax&#45;&gt;Gorflimrox -->
<g id="edge38" class="edge">
<title>Diortroulamax&#45;&gt;Gorflimrox</title>
<path fill="none" stroke="black" d="M2011.27,-147.83C1999.08,-138.88 1984.22,-127.96 1971.07,-118.3"/>
<polygon fill="black" stroke="black" points="1972.85,-115.26 1962.72,-112.16 1968.71,-120.9 1972.85,-115.26"/>
</g>
<!-- Klocraumitex -->
<g id="node40" class="node">
<title>Klocraumitex</title>
<polygon fill="none" stroke="black" points="2086.5,-112 1995.5,-112 1995.5,-74 2086.5,-74 2086.5,-112"/>
<text text-anchor="start" x="2003.5" y="-96.8" font-family="Times New Roman,serif" font-size="14.00">Klocraumitex</text>
<text text-anchor="start" x="2018.5" y="-81.8" font-family="Times New Roman,serif" font-size="14.00">6432,00</text>
</g>
<!-- Diortroulamax&#45;&gt;Klocraumitex -->
<g id="edge39" class="edge">
<title>Diortroulamax&#45;&gt;Klocraumitex</title>
<path fill="none" stroke="black" d="M2037.26,-147.83C2037.8,-140.13 2038.43,-130.97 2039.03,-122.42"/>
<polygon fill="black" stroke="black" points="2042.52,-122.63 2039.72,-112.41 2035.54,-122.15 2042.52,-122.63"/>
</g>
<!-- Altvinrenlex -->
<g id="node43" class="node">
<title>Altvinrenlex</title>
<polygon fill="none" stroke="black" points="2198.5,-112 2115.5,-112 2115.5,-74 2198.5,-74 2198.5,-112"/>
<text text-anchor="start" x="2123.5" y="-96.8" font-family="Times New Roman,serif" font-size="14.00">Altvinrenlex</text>
<text text-anchor="start" x="2134.5" y="-81.8" font-family="Times New Roman,serif" font-size="14.00">5842,00</text>
</g>
<!-- Stropmanpaneepex&#45;&gt;Altvinrenlex -->
<g id="edge42" class="edge">
<title>Stropmanpaneepex&#45;&gt;Altvinrenlex</title>
<path fill="none" stroke="black" d="M2242.98,-147.83C2228.27,-138.62 2210.24,-127.33 2194.49,-117.47"/>
<polygon fill="black" stroke="black" points="2196.34,-114.5 2186.01,-112.16 2192.63,-120.44 2196.34,-114.5"/>
</g>
<!-- Gorumirentrax -->
<g id="node44" class="node">
<title>Gorumirentrax</title>
<polygon fill="none" stroke="black" points="2315,-112 2217,-112 2217,-74 2315,-74 2315,-112"/>
<text text-anchor="start" x="2225" y="-96.8" font-family="Times New Roman,serif" font-size="14.00">Gorumirentrax</text>
<text text-anchor="start" x="2243.5" y="-81.8" font-family="Times New Roman,serif" font-size="14.00">5546,00</text>
</g>
<!-- Stropmanpaneepex&#45;&gt;Gorumirentrax -->
<g id="edge43" class="edge">
<title>Stropmanpaneepex&#45;&gt;Gorumirentrax</title>
<path fill="none" stroke="black" d="M2270.49,-147.83C2269.84,-140.13 2269.08,-130.97 2268.37,-122.42"/>
<polygon fill="black" stroke="black" points="2271.85,-122.09 2267.53,-112.41 2264.88,-122.67 2271.85,-122.09"/>
</g>
<!-- Specgacrifux -->
<g id="node45" class="node">
<title>Specgacrifux</title>
<polygon fill="none" stroke="black" points="2423,-112 2333,-112 2333,-74 2423,-74 2423,-112"/>
<text text-anchor="start" x="2341" y="-96.8" font-family="Times New Roman,serif" font-size="14.00">Specgacrifux</text>
<text text-anchor="start" x="2355.5" y="-81.8" font-family="Times New Roman,serif" font-size="14.00">5835,00</text>
</g>
<!-- Stropmanpaneepex&#45;&gt;Specgacrifux -->
<g id="edge44" class="edge">
<title>Stropmanpaneepex&#45;&gt;Specgacrifux</title>
<path fill="none" stroke="black" d="M2298.75,-147.83C2312.06,-138.79 2328.32,-127.75 2342.64,-118.02"/>
<polygon fill="black" stroke="black" points="2344.95,-120.68 2351.26,-112.16 2341.02,-114.89 2344.95,-120.68"/>
</g>
<!-- Thorbarrox -->
<g id="node46" class="node">
<title>Thorbarrox</title>
<polygon fill="none" stroke="black" points="2522.5,-112 2441.5,-112 2441.5,-74 2522.5,-74 2522.5,-112"/>
<text text-anchor="start" x="2449.5" y="-96.8" font-family="Times New Roman,serif" font-size="14.00">Thorbarrox</text>
<text text-anchor="start" x="2459.5" y="-81.8" font-family="Times New Roman,serif" font-size="14.00">2929,00</text>
</g>
<!-- Stropmanpaneepex&#45;&gt;Thorbarrox -->
<g id="edge45" class="edge">
<title>Stropmanpaneepex&#45;&gt;Thorbarrox</title>
<path fill="none" stroke="black" d="M2326.52,-147.9C2355.26,-138.29 2391.32,-126.12 2431.82,-112.03"/>
<polygon fill="black" stroke="black" points="2433.07,-115.3 2441.37,-108.71 2430.77,-108.69 2433.07,-115.3"/>
</g>
<!-- Altmonscatex -->
<g id="node47" class="node">
<title>Altmonscatex</title>
<polygon fill="none" stroke="black" points="2477.5,-38 2384.5,-38 2384.5,0 2477.5,0 2477.5,-38"/>
<text text-anchor="start" x="2392.5" y="-22.8" font-family="Times New Roman,serif" font-size="14.00">Altmonscatex</text>
<text text-anchor="start" x="2408.5" y="-7.8" font-family="Times New Roman,serif" font-size="14.00">3175,00</text>
</g>
<!-- Thorbarrox&#45;&gt;Altmonscatex -->
<g id="edge46" class="edge">
<title>Thorbarrox&#45;&gt;Altmonscatex</title>
<path fill="none" stroke="black" d="M2469.13,-73.83C2463.32,-65.62 2456.33,-55.76 2449.94,-46.73"/>
<polygon fill="black" stroke="black" points="2452.68,-44.55 2444.04,-38.41 2446.97,-48.6 2452.68,-44.55"/>
</g>
<!-- Kraumifux -->
<g id="node48" class="node">
<title>Kraumifux</title>
<polygon fill="none" stroke="black" points="2570.5,-38 2495.5,-38 2495.5,0 2570.5,0 2570.5,-38"/>
<text text-anchor="start" x="2503.5" y="-22.8" font-family="Times New Roman,serif" font-size="14.00">Kraumifux</text>
<text text-anchor="start" x="2510.5" y="-7.8" font-family="Times New Roman,serif" font-size="14.00">4204,00</text>
</g>
<!-- Thorbarrox&#45;&gt;Kraumifux -->
<g id="edge47" class="edge">
<title>Thorbarrox&#45;&gt;Kraumifux</title>
<path fill="none" stroke="black" d="M2494.87,-73.83C2500.68,-65.62 2507.67,-55.76 2514.06,-46.73"/>
<polygon fill="black" stroke="black" points="2517.03,-48.6 2519.96,-38.41 2511.32,-44.55 2517.03,-48.6"/>
</g>
</g>
</svg>
