<?xml version="1.0" encoding="UTF-8" standalone="no"?>
<!DOCTYPE svg PUBLIC "-//W3C//DTD SVG 1.1//EN"
 "http://www.w3.org/Graphics/SVG/1.1/DTD/svg11.dtd">
<!-- Generated by graphviz version 2.49.3 (20211023.0002)
 -->
<!-- Pages: 1 -->
<svg width="2581pt" height="416pt"
 viewBox="0.00 0.00 2580.50 416.00" xmlns="http://www.w3.org/2000/svg" xmlns:xlink="http://www.w3.org/1999/xlink">
<g id="graph0" class="graph" transform="scale(1 1) rotate(0) translate(4 412)">
<polygon fill="white" stroke="transparent" points="-4,4 -4,-412 2576.5,-412 2576.5,4 -4,4"/>
<!-- Pacgagagantix -->
<g id="node1" class="node">
<title>Pacgagagantix</title>
<polygon fill="none" stroke="black" points="1104,-408 1008,-408 1008,-370 1104,-370 1104,-408"/>
<text text-anchor="start" x="1016" y="-392.8" font-family="Times New Roman,serif" font-size="14.00">Pacgagagantix</text>
<text text-anchor="start" x="1027" y="-377.8" font-family="Times New Roman,serif" font-size="14.00">330860,00</text>
</g>
<!-- Altrenratix -->
<g id="node2" class="node">
<title>Altrenratix</title>
<polygon fill="none" stroke="black" points="423,-334 349,-334 349,-296 423,-296 423,-334"/>
<text text-anchor="start" x="357" y="-318.8" font-family="Times New Roman,serif" font-size="14.00">Altrenratix</text>
<text text-anchor="start" x="360" y="-303.8" font-family="Times New Roman,serif" font-size="14.00">51591,71</text>
</g>
<!-- Pacgagagantix&#45;&gt;Altrenratix -->
<g id="edge1" class="edge">
<title>Pacgagagantix&#45;&gt;Altrenratix</title>
<path fill="none" stroke="black" d="M1007.82,-382.82C884.05,-369.52 556.13,-334.28 433.32,-321.09"/>
<polygon fill="black" stroke="black" points="433.43,-317.58 423.12,-319.99 432.68,-324.54 433.43,-317.58"/>
</g>
<!-- Biroverhilex -->
<g id="node13" class="node">
<title>Biroverhilex</title>
<polygon fill="none" stroke="black" points="914.5,-334 831.5,-334 831.5,-296 914.5,-296 914.5,-334"/>
<text text-anchor="start" x="839.5" y="-318.8" font-family="Times New Roman,serif" font-size="14.00">Biroverhilex</text>
<text text-anchor="start" x="847" y="-303.8" font-family="Times New Roman,serif" font-size="14.00">50725,71</text>
</g>
<!-- Pacgagagantix&#45;&gt;Biroverhilex -->
<g id="edge12" class="edge">
<title>Pacgagagantix&#45;&gt;Biroverhilex</title>
<path fill="none" stroke="black" d="M1009.82,-369.83C983.79,-359.59 951.22,-346.78 924.39,-336.22"/>
<polygon fill="black" stroke="black" points="925.37,-332.84 914.78,-332.44 922.81,-339.36 925.37,-332.84"/>
</g>
<!-- Kragefux -->
<g id="node14" class="node">
<title>Kragefux</title>
<polygon fill="none" stroke="black" points="1001,-334 933,-334 933,-296 1001,-296 1001,-334"/>
<text text-anchor="start" x="941" y="-318.8" font-family="Times New Roman,serif" font-size="14.00">Kragefux</text>
<text text-anchor="start" x="941" y="-303.8" font-family="Times New Roman,serif" font-size="14.00">53102,71</text>
</g>
<!-- Pacgagagantix&#45;&gt;Kragefux -->
<g id="edge13" class="edge">
<title>Pacgagagantix&#45;&gt;Kragefux</title>
<path fill="none" stroke="black" d="M1033.54,-369.83C1022.58,-360.96 1009.23,-350.16 997.37,-340.57"/>
<polygon fill="black" stroke="black" points="999.43,-337.73 989.45,-334.16 995.02,-343.17 999.43,-337.73"/>
</g>
<!-- Nepflegux -->
<g id="node15" class="node">
<title>Nepflegux</title>
<polygon fill="none" stroke="black" points="1093,-334 1019,-334 1019,-296 1093,-296 1093,-334"/>
<text text-anchor="start" x="1027" y="-318.8" font-family="Times New Roman,serif" font-size="14.00">Nepflegux</text>
<text text-anchor="start" x="1030" y="-303.8" font-family="Times New Roman,serif" font-size="14.00">51447,71</text>
</g>
<!-- Pacgagagantix&#45;&gt;Nepflegux -->
<g id="edge14" class="edge">
<title>Pacgagagantix&#45;&gt;Nepflegux</title>
<path fill="none" stroke="black" d="M1056,-369.83C1056,-362.13 1056,-352.97 1056,-344.42"/>
<polygon fill="black" stroke="black" points="1059.5,-344.41 1056,-334.41 1052.5,-344.41 1059.5,-344.41"/>
</g>
<!-- Prepverganveraux -->
<g id="node21" class="node">
<title>Prepverganveraux</title>
<polygon fill="none" stroke="black" points="1341,-334 1225,-334 1225,-296 1341,-296 1341,-334"/>
<text text-anchor="start" x="1233" y="-318.8" font-family="Times New Roman,serif" font-size="14.00">Prepverganveraux</text>
<text text-anchor="start" x="1257" y="-303.8" font-family="Times New Roman,serif" font-size="14.00">52763,71</text>
</g>
<!-- Pacgagagantix&#45;&gt;Prepverganveraux -->
<g id="edge20" class="edge">
<title>Pacgagagantix&#45;&gt;Prepverganveraux</title>
<path fill="none" stroke="black" d="M1104.14,-372.73C1136.74,-362.39 1180.24,-348.59 1216.18,-337.19"/>
<polygon fill="black" stroke="black" points="1217.63,-340.41 1226.1,-334.05 1215.51,-333.73 1217.63,-340.41"/>
</g>
<!-- Specumiunnfux -->
<g id="node50" class="node">
<title>Specumiunnfux</title>
<polygon fill="none" stroke="black" points="1463,-334 1359,-334 1359,-296 1463,-296 1463,-334"/>
<text text-anchor="start" x="1367" y="-318.8" font-family="Times New Roman,serif" font-size="14.00">Specumiunnfux</text>
<text text-anchor="start" x="1385" y="-303.8" font-family="Times New Roman,serif" font-size="14.00">53753,71</text>
</g>
<!-- Pacgagagantix&#45;&gt;Specumiunnfux -->
<g id="edge49" class="edge">
<title>Pacgagagantix&#45;&gt;Specumiunnfux</title>
<path fill="none" stroke="black" d="M1104.19,-380.75C1160.64,-371.9 1257.11,-355.67 1348.85,-334.15"/>
<polygon fill="black" stroke="black" points="1349.93,-337.49 1358.85,-331.78 1348.32,-330.68 1349.93,-337.49"/>
</g>
<!-- Thorpanflimmux -->
<g id="node51" class="node">
<title>Thorpanflimmux</title>
<polygon fill="none" stroke="black" points="1591,-334 1481,-334 1481,-296 1591,-296 1591,-334"/>
<text text-anchor="start" x="1489" y="-318.8" font-family="Times New Roman,serif" font-size="14.00">Thorpanflimmux</text>
<text text-anchor="start" x="1510" y="-303.8" font-family="Times New Roman,serif" font-size="14.00">50232,71</text>
</g>
<!-- Pacgagagantix&#45;&gt;Thorpanflimmux -->
<g id="edge50" class="edge">
<title>Pacgagagantix&#45;&gt;Thorpanflimmux</title>
<path fill="none" stroke="black" d="M1104.1,-384.04C1180.13,-377.29 1332.8,-361.7 1471.04,-334.04"/>
<polygon fill="black" stroke="black" points="1471.86,-337.44 1480.97,-332.03 1470.47,-330.58 1471.86,-337.44"/>
</g>
<!-- Atricintrovalmux -->
<g id="node3" class="node">
<title>Atricintrovalmux</title>
<polygon fill="none" stroke="black" points="110,-260 0,-260 0,-222 110,-222 110,-260"/>
<text text-anchor="start" x="8" y="-244.8" font-family="Times New Roman,serif" font-size="14.00">Atricintrovalmux</text>
<text text-anchor="start" x="29" y="-229.8" font-family="Times New Roman,serif" font-size="14.00">11683,62</text>
</g>
<!-- Altrenratix&#45;&gt;Atricintrovalmux -->
<g id="edge2" class="edge">
<title>Altrenratix&#45;&gt;Atricintrovalmux</title>
<path fill="none" stroke="black" d="M348.66,-307.36C298.73,-298.28 207.29,-280.95 119.9,-260.13"/>
<polygon fill="black" stroke="black" points="120.63,-256.71 110.09,-257.78 119,-263.51 120.63,-256.71"/>
</g>
<!-- Atritorrenlax -->
<g id="node4" class="node">
<title>Atritorrenlax</title>
<polygon fill="none" stroke="black" points="214,-260 128,-260 128,-222 214,-222 214,-260"/>
<text text-anchor="start" x="136" y="-244.8" font-family="Times New Roman,serif" font-size="14.00">Atritorrenlax</text>
<text text-anchor="start" x="145" y="-229.8" font-family="Times New Roman,serif" font-size="14.00">14928,62</text>
</g>
<!-- Altrenratix&#45;&gt;Atritorrenlax -->
<g id="edge3" class="edge">
<title>Altrenratix&#45;&gt;Atritorrenlax</title>
<path fill="none" stroke="black" d="M348.73,-301.81C317.73,-291.63 272.19,-276.61 223.82,-260.26"/>
<polygon fill="black" stroke="black" points="224.71,-256.87 214.12,-256.97 222.46,-263.5 224.71,-256.87"/>
</g>
<!-- Flerfleeestiatox -->
<g id="node5" class="node">
<title>Flerfleeestiatox</title>
<polygon fill="none" stroke="black" points="333.5,-260 232.5,-260 232.5,-222 333.5,-222 333.5,-260"/>
<text text-anchor="start" x="240.5" y="-244.8" font-family="Times New Roman,serif" font-size="14.00">Flerfleeestiatox</text>
<text text-anchor="start" x="257" y="-229.8" font-family="Times New Roman,serif" font-size="14.00">13940,62</text>
</g>
<!-- Altrenratix&#45;&gt;Flerfleeestiatox -->
<g id="edge4" class="edge">
<title>Altrenratix&#45;&gt;Flerfleeestiatox</title>
<path fill="none" stroke="black" d="M360.01,-295.83C347.08,-286.79 331.28,-275.75 317.36,-266.02"/>
<polygon fill="black" stroke="black" points="319.18,-263.02 308.98,-260.16 315.17,-268.76 319.18,-263.02"/>
</g>
<!-- Frintosix -->
<g id="node10" class="node">
<title>Frintosix</title>
<polygon fill="none" stroke="black" points="420,-260 352,-260 352,-222 420,-222 420,-260"/>
<text text-anchor="start" x="361" y="-244.8" font-family="Times New Roman,serif" font-size="14.00">Frintosix</text>
<text text-anchor="start" x="360" y="-229.8" font-family="Times New Roman,serif" font-size="14.00">12566,62</text>
</g>
<!-- Altrenratix&#45;&gt;Frintosix -->
<g id="edge9" class="edge">
<title>Altrenratix&#45;&gt;Frintosix</title>
<path fill="none" stroke="black" d="M386,-295.83C386,-288.13 386,-278.97 386,-270.42"/>
<polygon fill="black" stroke="black" points="389.5,-270.41 386,-260.41 382.5,-270.41 389.5,-270.41"/>
</g>
<!-- Kratrogerflex -->
<g id="node11" class="node">
<title>Kratrogerflex</title>
<polygon fill="none" stroke="black" points="528,-260 438,-260 438,-222 528,-222 528,-260"/>
<text text-anchor="start" x="446" y="-244.8" font-family="Times New Roman,serif" font-size="14.00">Kratrogerflex</text>
<text text-anchor="start" x="457" y="-229.8" font-family="Times New Roman,serif" font-size="14.00">12166,62</text>
</g>
<!-- Altrenratix&#45;&gt;Kratrogerflex -->
<g id="edge10" class="edge">
<title>Altrenratix&#45;&gt;Kratrogerflex</title>
<path fill="none" stroke="black" d="M410.48,-295.83C422.54,-286.88 437.25,-275.96 450.27,-266.3"/>
<polygon fill="black" stroke="black" points="452.59,-268.93 458.53,-260.16 448.41,-263.31 452.59,-268.93"/>
</g>
<!-- Nepcinhideninax -->
<g id="node12" class="node">
<title>Nepcinhideninax</title>
<polygon fill="none" stroke="black" points="655.5,-260 546.5,-260 546.5,-222 655.5,-222 655.5,-260"/>
<text text-anchor="start" x="554.5" y="-244.8" font-family="Times New Roman,serif" font-size="14.00">Nepcinhideninax</text>
<text text-anchor="start" x="575" y="-229.8" font-family="Times New Roman,serif" font-size="14.00">14129,62</text>
</g>
<!-- Altrenratix&#45;&gt;Nepcinhideninax -->
<g id="edge11" class="edge">
<title>Altrenratix&#45;&gt;Nepcinhideninax</title>
<path fill="none" stroke="black" d="M423.45,-301.46C454.82,-290.95 500.27,-275.73 537.34,-263.32"/>
<polygon fill="black" stroke="black" points="538.69,-266.56 547.06,-260.06 536.46,-259.92 538.69,-266.56"/>
</g>
<!-- Gorhibleplax -->
<g id="node6" class="node">
<title>Gorhibleplax</title>
<polygon fill="none" stroke="black" points="174.5,-186 85.5,-186 85.5,-148 174.5,-148 174.5,-186"/>
<text text-anchor="start" x="93.5" y="-170.8" font-family="Times New Roman,serif" font-size="14.00">Gorhibleplax</text>
<text text-anchor="start" x="107.5" y="-155.8" font-family="Times New Roman,serif" font-size="14.00">9841,15</text>
</g>
<!-- Flerfleeestiatox&#45;&gt;Gorhibleplax -->
<g id="edge5" class="edge">
<title>Flerfleeestiatox&#45;&gt;Gorhibleplax</title>
<path fill="none" stroke="black" d="M244.39,-221.83C224.11,-212.29 199.08,-200.51 177.6,-190.4"/>
<polygon fill="black" stroke="black" points="178.87,-187.13 168.33,-186.04 175.89,-193.46 178.87,-187.13"/>
</g>
<!-- Mirtrensix -->
<g id="node7" class="node">
<title>Mirtrensix</title>
<polygon fill="none" stroke="black" points="265.5,-186 192.5,-186 192.5,-148 265.5,-148 265.5,-186"/>
<text text-anchor="start" x="200.5" y="-170.8" font-family="Times New Roman,serif" font-size="14.00">Mirtrensix</text>
<text text-anchor="start" x="206.5" y="-155.8" font-family="Times New Roman,serif" font-size="14.00">6505,15</text>
</g>
<!-- Flerfleeestiatox&#45;&gt;Mirtrensix -->
<g id="edge6" class="edge">
<title>Flerfleeestiatox&#45;&gt;Mirtrensix</title>
<path fill="none" stroke="black" d="M269.37,-221.83C263.15,-213.54 255.67,-203.56 248.84,-194.45"/>
<polygon fill="black" stroke="black" points="251.61,-192.31 242.81,-186.41 246.01,-196.51 251.61,-192.31"/>
</g>
<!-- Morgbarflimgex -->
<g id="node8" class="node">
<title>Morgbarflimgex</title>
<polygon fill="none" stroke="black" points="390,-186 284,-186 284,-148 390,-148 390,-186"/>
<text text-anchor="start" x="292" y="-170.8" font-family="Times New Roman,serif" font-size="14.00">Morgbarflimgex</text>
<text text-anchor="start" x="314.5" y="-155.8" font-family="Times New Roman,serif" font-size="14.00">7855,15</text>
</g>
<!-- Flerfleeestiatox&#45;&gt;Morgbarflimgex -->
<g id="edge7" class="edge">
<title>Flerfleeestiatox&#45;&gt;Morgbarflimgex</title>
<path fill="none" stroke="black" d="M296.63,-221.83C302.85,-213.54 310.33,-203.56 317.16,-194.45"/>
<polygon fill="black" stroke="black" points="319.99,-196.51 323.19,-186.41 314.39,-192.31 319.99,-196.51"/>
</g>
<!-- Morgtrocaptex -->
<g id="node9" class="node">
<title>Morgtrocaptex</title>
<polygon fill="none" stroke="black" points="508,-186 408,-186 408,-148 508,-148 508,-186"/>
<text text-anchor="start" x="416" y="-170.8" font-family="Times New Roman,serif" font-size="14.00">Morgtrocaptex</text>
<text text-anchor="start" x="435.5" y="-155.8" font-family="Times New Roman,serif" font-size="14.00">8923,15</text>
</g>
<!-- Flerfleeestiatox&#45;&gt;Morgtrocaptex -->
<g id="edge8" class="edge">
<title>Flerfleeestiatox&#45;&gt;Morgtrocaptex</title>
<path fill="none" stroke="black" d="M327.16,-221.83C350.77,-212.12 380.02,-200.08 404.87,-189.86"/>
<polygon fill="black" stroke="black" points="406.24,-193.08 414.16,-186.04 403.58,-186.61 406.24,-193.08"/>
</g>
<!-- Critrogaumistax -->
<g id="node16" class="node">
<title>Critrogaumistax</title>
<polygon fill="none" stroke="black" points="778.5,-260 673.5,-260 673.5,-222 778.5,-222 778.5,-260"/>
<text text-anchor="start" x="681.5" y="-244.8" font-family="Times New Roman,serif" font-size="14.00">Critrogaumistax</text>
<text text-anchor="start" x="700" y="-229.8" font-family="Times New Roman,serif" font-size="14.00">16597,54</text>
</g>
<!-- Nepflegux&#45;&gt;Critrogaumistax -->
<g id="edge15" class="edge">
<title>Nepflegux&#45;&gt;Critrogaumistax</title>
<path fill="none" stroke="black" d="M1018.82,-298.69C1015.86,-297.7 1012.9,-296.79 1010,-296 916.6,-270.46 887.33,-281.24 788.44,-259.92"/>
<polygon fill="black" stroke="black" points="789.17,-256.5 778.65,-257.76 787.66,-263.34 789.17,-256.5"/>
</g>
<!-- Frinbloscasix -->
<g id="node17" class="node">
<title>Frinbloscasix</title>
<polygon fill="none" stroke="black" points="889,-260 797,-260 797,-222 889,-222 889,-260"/>
<text text-anchor="start" x="805" y="-244.8" font-family="Times New Roman,serif" font-size="14.00">Frinbloscasix</text>
<text text-anchor="start" x="817" y="-229.8" font-family="Times New Roman,serif" font-size="14.00">13501,54</text>
</g>
<!-- Nepflegux&#45;&gt;Frinbloscasix -->
<g id="edge16" class="edge">
<title>Nepflegux&#45;&gt;Frinbloscasix</title>
<path fill="none" stroke="black" d="M1018.92,-299.26C1015.91,-298.14 1012.91,-297.04 1010,-296 963.53,-279.46 949.33,-276.44 898.73,-260.21"/>
<polygon fill="black" stroke="black" points="899.8,-256.88 889.21,-257.14 897.65,-263.54 899.8,-256.88"/>
</g>
<!-- Morgtoclox -->
<g id="node18" class="node">
<title>Morgtoclox</title>
<polygon fill="none" stroke="black" points="990.5,-260 907.5,-260 907.5,-222 990.5,-222 990.5,-260"/>
<text text-anchor="start" x="915.5" y="-244.8" font-family="Times New Roman,serif" font-size="14.00">Morgtoclox</text>
<text text-anchor="start" x="923" y="-229.8" font-family="Times New Roman,serif" font-size="14.00">12934,54</text>
</g>
<!-- Nepflegux&#45;&gt;Morgtoclox -->
<g id="edge17" class="edge">
<title>Nepflegux&#45;&gt;Morgtoclox</title>
<path fill="none" stroke="black" d="M1029,-295.83C1015.57,-286.79 999.15,-275.75 984.7,-266.02"/>
<polygon fill="black" stroke="black" points="986.24,-262.84 975.99,-260.16 982.33,-268.65 986.24,-262.84"/>
</g>
<!-- Pacbarverpox -->
<g id="node19" class="node">
<title>Pacbarverpox</title>
<polygon fill="none" stroke="black" points="1103.5,-260 1008.5,-260 1008.5,-222 1103.5,-222 1103.5,-260"/>
<text text-anchor="start" x="1016.5" y="-244.8" font-family="Times New Roman,serif" font-size="14.00">Pacbarverpox</text>
<text text-anchor="start" x="1030" y="-229.8" font-family="Times New Roman,serif" font-size="14.00">12763,54</text>
</g>
<!-- Nepflegux&#45;&gt;Pacbarverpox -->
<g id="edge18" class="edge">
<title>Nepflegux&#45;&gt;Pacbarverpox</title>
<path fill="none" stroke="black" d="M1056,-295.83C1056,-288.13 1056,-278.97 1056,-270.42"/>
<polygon fill="black" stroke="black" points="1059.5,-270.41 1056,-260.41 1052.5,-270.41 1059.5,-270.41"/>
</g>
<!-- Prepbarvalmux -->
<g id="node20" class="node">
<title>Prepbarvalmux</title>
<polygon fill="none" stroke="black" points="1222.5,-260 1121.5,-260 1121.5,-222 1222.5,-222 1222.5,-260"/>
<text text-anchor="start" x="1129.5" y="-244.8" font-family="Times New Roman,serif" font-size="14.00">Prepbarvalmux</text>
<text text-anchor="start" x="1146" y="-229.8" font-family="Times New Roman,serif" font-size="14.00">16101,54</text>
</g>
<!-- Nepflegux&#45;&gt;Prepbarvalmux -->
<g id="edge19" class="edge">
<title>Nepflegux&#45;&gt;Prepbarvalmux</title>
<path fill="none" stroke="black" d="M1085.27,-295.83C1100.11,-286.62 1118.3,-275.33 1134.19,-265.47"/>
<polygon fill="black" stroke="black" points="1136.09,-268.41 1142.74,-260.16 1132.4,-262.46 1136.09,-268.41"/>
</g>
<!-- Critopanvax -->
<g id="node22" class="node">
<title>Critopanvax</title>
<polygon fill="none" stroke="black" points="1325.5,-260 1240.5,-260 1240.5,-222 1325.5,-222 1325.5,-260"/>
<text text-anchor="start" x="1248.5" y="-244.8" font-family="Times New Roman,serif" font-size="14.00">Critopanvax</text>
<text text-anchor="start" x="1257" y="-229.8" font-family="Times New Roman,serif" font-size="14.00">15998,93</text>
</g>
<!-- Prepverganveraux&#45;&gt;Critopanvax -->
<g id="edge21" class="edge">
<title>Prepverganveraux&#45;&gt;Critopanvax</title>
<path fill="none" stroke="black" d="M1283,-295.83C1283,-288.13 1283,-278.97 1283,-270.42"/>
<polygon fill="black" stroke="black" points="1286.5,-270.41 1283,-260.41 1279.5,-270.41 1286.5,-270.41"/>
</g>
<!-- Crongeptix -->
<g id="node23" class="node">
<title>Crongeptix</title>
<polygon fill="none" stroke="black" points="1422.5,-260 1343.5,-260 1343.5,-222 1422.5,-222 1422.5,-260"/>
<text text-anchor="start" x="1351.5" y="-244.8" font-family="Times New Roman,serif" font-size="14.00">Crongeptix</text>
<text text-anchor="start" x="1357" y="-229.8" font-family="Times New Roman,serif" font-size="14.00">18200,93</text>
</g>
<!-- Prepverganveraux&#45;&gt;Crongeptix -->
<g id="edge22" class="edge">
<title>Prepverganveraux&#45;&gt;Crongeptix</title>
<path fill="none" stroke="black" d="M1308.23,-295.83C1320.79,-286.79 1336.13,-275.75 1349.64,-266.02"/>
<polygon fill="black" stroke="black" points="1351.7,-268.85 1357.77,-260.16 1347.61,-263.17 1351.7,-268.85"/>
</g>
<!-- Klogemax -->
<g id="node34" class="node">
<title>Klogemax</title>
<polygon fill="none" stroke="black" points="1898.5,-260 1825.5,-260 1825.5,-222 1898.5,-222 1898.5,-260"/>
<text text-anchor="start" x="1833.5" y="-244.8" font-family="Times New Roman,serif" font-size="14.00">Klogemax</text>
<text text-anchor="start" x="1836" y="-229.8" font-family="Times New Roman,serif" font-size="14.00">19996,93</text>
</g>
<!-- Prepverganveraux&#45;&gt;Klogemax -->
<g id="edge33" class="edge">
<title>Prepverganveraux&#45;&gt;Klogemax</title>
<path fill="none" stroke="black" d="M1341.34,-297.75C1344.26,-297.12 1347.16,-296.53 1350,-296 1519.69,-264.46 1724.71,-249.78 1815.2,-244.47"/>
<polygon fill="black" stroke="black" points="1815.62,-247.95 1825.4,-243.88 1815.22,-240.96 1815.62,-247.95"/>
</g>
<!-- Rimbarulatrokox -->
<g id="node49" class="node">
<title>Rimbarulatrokox</title>
<polygon fill="none" stroke="black" points="2027,-260 1917,-260 1917,-222 2027,-222 2027,-260"/>
<text text-anchor="start" x="1925" y="-244.8" font-family="Times New Roman,serif" font-size="14.00">Rimbarulatrokox</text>
<text text-anchor="start" x="1946" y="-229.8" font-family="Times New Roman,serif" font-size="14.00">19401,93</text>
</g>
<!-- Prepverganveraux&#45;&gt;Rimbarulatrokox -->
<g id="edge48" class="edge">
<title>Prepverganveraux&#45;&gt;Rimbarulatrokox</title>
<path fill="none" stroke="black" d="M1341.32,-297.6C1344.24,-297.01 1347.15,-296.47 1350,-296 1594.76,-255.62 1662.39,-301.32 1907,-260 1907.1,-259.98 1907.2,-259.97 1907.3,-259.95"/>
<polygon fill="black" stroke="black" points="1907.7,-263.44 1916.86,-258.1 1906.37,-256.56 1907.7,-263.44"/>
</g>
<!-- Crivinstiinox -->
<g id="node24" class="node">
<title>Crivinstiinox</title>
<polygon fill="none" stroke="black" points="1003.5,-186 916.5,-186 916.5,-148 1003.5,-148 1003.5,-186"/>
<text text-anchor="start" x="924.5" y="-170.8" font-family="Times New Roman,serif" font-size="14.00">Crivinstiinox</text>
<text text-anchor="start" x="937.5" y="-155.8" font-family="Times New Roman,serif" font-size="14.00">5526,49</text>
</g>
<!-- Crongeptix&#45;&gt;Crivinstiinox -->
<g id="edge23" class="edge">
<title>Crongeptix&#45;&gt;Crivinstiinox</title>
<path fill="none" stroke="black" d="M1343.4,-224.55C1340.25,-223.59 1337.09,-222.73 1334,-222 1197.42,-189.75 1155.01,-216.03 1013.65,-185.84"/>
<polygon fill="black" stroke="black" points="1014.27,-182.39 1003.75,-183.67 1012.77,-189.23 1014.27,-182.39"/>
</g>
<!-- Docvalhigex -->
<g id="node25" class="node">
<title>Docvalhigex</title>
<polygon fill="none" stroke="black" points="1108,-186 1022,-186 1022,-148 1108,-148 1108,-186"/>
<text text-anchor="start" x="1030" y="-170.8" font-family="Times New Roman,serif" font-size="14.00">Docvalhigex</text>
<text text-anchor="start" x="1042.5" y="-155.8" font-family="Times New Roman,serif" font-size="14.00">8834,49</text>
</g>
<!-- Crongeptix&#45;&gt;Docvalhigex -->
<g id="edge24" class="edge">
<title>Crongeptix&#45;&gt;Docvalhigex</title>
<path fill="none" stroke="black" d="M1343.35,-224.73C1340.21,-223.73 1337.07,-222.81 1334,-222 1242.52,-197.84 1213.61,-209.27 1118.02,-186.02"/>
<polygon fill="black" stroke="black" points="1118.8,-182.61 1108.25,-183.58 1117.1,-189.4 1118.8,-182.61"/>
</g>
<!-- Kloganbarmocnox -->
<g id="node30" class="node">
<title>Kloganbarmocnox</title>
<polygon fill="none" stroke="black" points="1246,-186 1126,-186 1126,-148 1246,-148 1246,-186"/>
<text text-anchor="start" x="1134" y="-170.8" font-family="Times New Roman,serif" font-size="14.00">Kloganbarmocnox</text>
<text text-anchor="start" x="1163.5" y="-155.8" font-family="Times New Roman,serif" font-size="14.00">8340,49</text>
</g>
<!-- Crongeptix&#45;&gt;Kloganbarmocnox -->
<g id="edge29" class="edge">
<title>Crongeptix&#45;&gt;Kloganbarmocnox</title>
<path fill="none" stroke="black" d="M1343.42,-225.45C1340.23,-224.28 1337.06,-223.12 1334,-222 1304.83,-211.32 1272.42,-199.49 1245.38,-189.63"/>
<polygon fill="black" stroke="black" points="1246.27,-186.23 1235.68,-186.1 1243.88,-192.81 1246.27,-186.23"/>
</g>
<!-- Morgtrotorvinpex -->
<g id="node31" class="node">
<title>Morgtrotorvinpex</title>
<polygon fill="none" stroke="black" points="1380,-186 1264,-186 1264,-148 1380,-148 1380,-186"/>
<text text-anchor="start" x="1272" y="-170.8" font-family="Times New Roman,serif" font-size="14.00">Morgtrotorvinpex</text>
<text text-anchor="start" x="1299.5" y="-155.8" font-family="Times New Roman,serif" font-size="14.00">7443,49</text>
</g>
<!-- Crongeptix&#45;&gt;Morgtrotorvinpex -->
<g id="edge30" class="edge">
<title>Crongeptix&#45;&gt;Morgtrotorvinpex</title>
<path fill="none" stroke="black" d="M1367.61,-221.83C1360.51,-213.45 1351.95,-203.35 1344.18,-194.17"/>
<polygon fill="black" stroke="black" points="1346.73,-191.78 1337.6,-186.41 1341.39,-196.31 1346.73,-191.78"/>
</g>
<!-- Stropgankox -->
<g id="node32" class="node">
<title>Stropgankox</title>
<polygon fill="none" stroke="black" points="1487.5,-186 1398.5,-186 1398.5,-148 1487.5,-148 1487.5,-186"/>
<text text-anchor="start" x="1406.5" y="-170.8" font-family="Times New Roman,serif" font-size="14.00">Stropgankox</text>
<text text-anchor="start" x="1420.5" y="-155.8" font-family="Times New Roman,serif" font-size="14.00">8589,49</text>
</g>
<!-- Crongeptix&#45;&gt;Stropgankox -->
<g id="edge31" class="edge">
<title>Crongeptix&#45;&gt;Stropgankox</title>
<path fill="none" stroke="black" d="M1398.14,-221.83C1405.12,-213.45 1413.54,-203.35 1421.19,-194.17"/>
<polygon fill="black" stroke="black" points="1423.94,-196.34 1427.66,-186.41 1418.56,-191.85 1423.94,-196.34"/>
</g>
<!-- Tripflegnimontox -->
<g id="node33" class="node">
<title>Tripflegnimontox</title>
<polygon fill="none" stroke="black" points="1618.5,-186 1505.5,-186 1505.5,-148 1618.5,-148 1618.5,-186"/>
<text text-anchor="start" x="1513.5" y="-170.8" font-family="Times New Roman,serif" font-size="14.00">Tripflegnimontox</text>
<text text-anchor="start" x="1539.5" y="-155.8" font-family="Times New Roman,serif" font-size="14.00">8073,49</text>
</g>
<!-- Crongeptix&#45;&gt;Tripflegnimontox -->
<g id="edge32" class="edge">
<title>Crongeptix&#45;&gt;Tripflegnimontox</title>
<path fill="none" stroke="black" d="M1422.73,-224.02C1447.69,-213.98 1480.24,-200.89 1507.59,-189.88"/>
<polygon fill="black" stroke="black" points="1509.06,-193.07 1517.03,-186.09 1506.45,-186.57 1509.06,-193.07"/>
</g>
<!-- Diorstiflevix -->
<g id="node26" class="node">
<title>Diorstiflevix</title>
<polygon fill="none" stroke="black" points="929,-112 845,-112 845,-74 929,-74 929,-112"/>
<text text-anchor="start" x="853" y="-96.8" font-family="Times New Roman,serif" font-size="14.00">Diorstiflevix</text>
<text text-anchor="start" x="864.5" y="-81.8" font-family="Times New Roman,serif" font-size="14.00">7405,62</text>
</g>
<!-- Docvalhigex&#45;&gt;Diorstiflevix -->
<g id="edge25" class="edge">
<title>Docvalhigex&#45;&gt;Diorstiflevix</title>
<path fill="none" stroke="black" d="M1021.91,-148.57C996.8,-138.41 964.98,-125.54 938.55,-114.85"/>
<polygon fill="black" stroke="black" points="939.66,-111.53 929.08,-111.02 937.04,-118.01 939.66,-111.53"/>
</g>
<!-- Frintorcinmankix -->
<g id="node27" class="node">
<title>Frintorcinmankix</title>
<polygon fill="none" stroke="black" points="1058.5,-112 947.5,-112 947.5,-74 1058.5,-74 1058.5,-112"/>
<text text-anchor="start" x="955.5" y="-96.8" font-family="Times New Roman,serif" font-size="14.00">Frintorcinmankix</text>
<text text-anchor="start" x="980.5" y="-81.8" font-family="Times New Roman,serif" font-size="14.00">8482,62</text>
</g>
<!-- Docvalhigex&#45;&gt;Frintorcinmankix -->
<g id="edge26" class="edge">
<title>Docvalhigex&#45;&gt;Frintorcinmankix</title>
<path fill="none" stroke="black" d="M1049.35,-147.83C1042.14,-139.45 1033.44,-129.35 1025.54,-120.17"/>
<polygon fill="black" stroke="black" points="1028.03,-117.71 1018.86,-112.41 1022.73,-122.27 1028.03,-117.71"/>
</g>
<!-- Pachitomonrox -->
<g id="node28" class="node">
<title>Pachitomonrox</title>
<polygon fill="none" stroke="black" points="1179,-112 1077,-112 1077,-74 1179,-74 1179,-112"/>
<text text-anchor="start" x="1085" y="-96.8" font-family="Times New Roman,serif" font-size="14.00">Pachitomonrox</text>
<text text-anchor="start" x="1105.5" y="-81.8" font-family="Times New Roman,serif" font-size="14.00">6012,62</text>
</g>
<!-- Docvalhigex&#45;&gt;Pachitomonrox -->
<g id="edge27" class="edge">
<title>Docvalhigex&#45;&gt;Pachitomonrox</title>
<path fill="none" stroke="black" d="M1080.9,-147.83C1088.23,-139.45 1097.07,-129.35 1105.1,-120.17"/>
<polygon fill="black" stroke="black" points="1107.94,-122.24 1111.89,-112.41 1102.67,-117.63 1107.94,-122.24"/>
</g>
<!-- Prepcrabax -->
<g id="node29" class="node">
<title>Prepcrabax</title>
<polygon fill="none" stroke="black" points="1277,-112 1197,-112 1197,-74 1277,-74 1277,-112"/>
<text text-anchor="start" x="1205" y="-96.8" font-family="Times New Roman,serif" font-size="14.00">Prepcrabax</text>
<text text-anchor="start" x="1214.5" y="-81.8" font-family="Times New Roman,serif" font-size="14.00">6110,62</text>
</g>
<!-- Docvalhigex&#45;&gt;Prepcrabax -->
<g id="edge28" class="edge">
<title>Docvalhigex&#45;&gt;Prepcrabax</title>
<path fill="none" stroke="black" d="M1108.4,-147.83C1132.49,-137.75 1162.55,-125.16 1187.55,-114.7"/>
<polygon fill="black" stroke="black" points="1188.98,-117.89 1196.86,-110.8 1186.28,-111.44 1188.98,-117.89"/>
</g>
<!-- Altdriscaaaratox -->
<g id="node35" class="node">
<title>Altdriscaaaratox</title>
<polygon fill="none" stroke="black" points="1743.5,-186 1636.5,-186 1636.5,-148 1743.5,-148 1743.5,-186"/>
<text text-anchor="start" x="1644.5" y="-170.8" font-family="Times New Roman,serif" font-size="14.00">Altdriscaaaratox</text>
<text text-anchor="start" x="1667.5" y="-155.8" font-family="Times New Roman,serif" font-size="14.00">6033,82</text>
</g>
<!-- Klogemax&#45;&gt;Altdriscaaaratox -->
<g id="edge34" class="edge">
<title>Klogemax&#45;&gt;Altdriscaaaratox</title>
<path fill="none" stroke="black" d="M1825.1,-224.55C1801.1,-214.51 1769.43,-201.25 1742.78,-190.09"/>
<polygon fill="black" stroke="black" points="1743.79,-186.72 1733.22,-186.09 1741.09,-193.18 1743.79,-186.72"/>
</g>
<!-- Crivindribax -->
<g id="node36" class="node">
<title>Crivindribax</title>
<polygon fill="none" stroke="black" points="1848,-186 1762,-186 1762,-148 1848,-148 1848,-186"/>
<text text-anchor="start" x="1770" y="-170.8" font-family="Times New Roman,serif" font-size="14.00">Crivindribax</text>
<text text-anchor="start" x="1782.5" y="-155.8" font-family="Times New Roman,serif" font-size="14.00">9550,82</text>
</g>
<!-- Klogemax&#45;&gt;Crivindribax -->
<g id="edge35" class="edge">
<title>Klogemax&#45;&gt;Crivindribax</title>
<path fill="none" stroke="black" d="M1847.62,-221.83C1841.05,-213.54 1833.15,-203.56 1825.94,-194.45"/>
<polygon fill="black" stroke="black" points="1828.53,-192.08 1819.58,-186.41 1823.04,-196.43 1828.53,-192.08"/>
</g>
<!-- Cronunnpanpex -->
<g id="node37" class="node">
<title>Cronunnpanpex</title>
<polygon fill="none" stroke="black" points="1972,-186 1866,-186 1866,-148 1972,-148 1972,-186"/>
<text text-anchor="start" x="1874" y="-170.8" font-family="Times New Roman,serif" font-size="14.00">Cronunnpanpex</text>
<text text-anchor="start" x="1896.5" y="-155.8" font-family="Times New Roman,serif" font-size="14.00">8510,82</text>
</g>
<!-- Klogemax&#45;&gt;Cronunnpanpex -->
<g id="edge36" class="edge">
<title>Klogemax&#45;&gt;Cronunnpanpex</title>
<path fill="none" stroke="black" d="M1876.38,-221.83C1882.95,-213.54 1890.85,-203.56 1898.06,-194.45"/>
<polygon fill="black" stroke="black" points="1900.96,-196.43 1904.42,-186.41 1895.47,-192.08 1900.96,-196.43"/>
</g>
<!-- Diortroulamax -->
<g id="node38" class="node">
<title>Diortroulamax</title>
<polygon fill="none" stroke="black" points="2086,-186 1990,-186 1990,-148 2086,-148 2086,-186"/>
<text text-anchor="start" x="1998" y="-170.8" font-family="Times New Roman,serif" font-size="14.00">Diortroulamax</text>
<text text-anchor="start" x="2015.5" y="-155.8" font-family="Times New Roman,serif" font-size="14.00">5439,82</text>
</g>
<!-- Klogemax&#45;&gt;Diortroulamax -->
<g id="edge37" class="edge">
<title>Klogemax&#45;&gt;Diortroulamax</title>
<path fill="none" stroke="black" d="M1898.9,-224.91C1923.69,-214.76 1956.77,-201.23 1984.45,-189.91"/>
<polygon fill="black" stroke="black" points="1986.06,-193.03 1993.99,-186 1983.41,-186.55 1986.06,-193.03"/>
</g>
<!-- Gorvincrakix -->
<g id="node41" class="node">
<title>Gorvincrakix</title>
<polygon fill="none" stroke="black" points="2193.5,-186 2104.5,-186 2104.5,-148 2193.5,-148 2193.5,-186"/>
<text text-anchor="start" x="2112.5" y="-170.8" font-family="Times New Roman,serif" font-size="14.00">Gorvincrakix</text>
<text text-anchor="start" x="2126.5" y="-155.8" font-family="Times New Roman,serif" font-size="14.00">8165,82</text>
</g>
<!-- Klogemax&#45;&gt;Gorvincrakix -->
<g id="edge40" class="edge">
<title>Klogemax&#45;&gt;Gorvincrakix</title>
<path fill="none" stroke="black" d="M1898.7,-224.96C1901.82,-223.88 1904.95,-222.88 1908,-222 1986.29,-199.35 2011.27,-206.81 2094.46,-185.93"/>
<polygon fill="black" stroke="black" points="2095.53,-189.27 2104.35,-183.39 2093.79,-182.49 2095.53,-189.27"/>
</g>
<!-- Stropmanpaneepex -->
<g id="node42" class="node">
<title>Stropmanpaneepex</title>
<polygon fill="none" stroke="black" points="2336,-186 2212,-186 2212,-148 2336,-148 2336,-186"/>
<text text-anchor="start" x="2220" y="-170.8" font-family="Times New Roman,serif" font-size="14.00">Stropmanpaneepex</text>
<text text-anchor="start" x="2251.5" y="-155.8" font-family="Times New Roman,serif" font-size="14.00">8461,82</text>
</g>
<!-- Klogemax&#45;&gt;Stropmanpaneepex -->
<g id="edge41" class="edge">
<title>Klogemax&#45;&gt;Stropmanpaneepex</title>
<path fill="none" stroke="black" d="M1898.64,-224.73C1901.78,-223.71 1904.92,-222.78 1908,-222 2032.52,-190.55 2070.71,-209.05 2201.65,-185.9"/>
<polygon fill="black" stroke="black" points="2202.45,-189.31 2211.66,-184.08 2201.2,-182.43 2202.45,-189.31"/>
</g>
<!-- Gorflimrox -->
<g id="node39" class="node">
<title>Gorflimrox</title>
<polygon fill="none" stroke="black" points="1979.5,-112 1900.5,-112 1900.5,-74 1979.5,-74 1979.5,-112"/>
<text text-anchor="start" x="1908.5" y="-96.8" font-family="Times New Roman,serif" font-size="14.00">Gorflimrox</text>
<text text-anchor="start" x="1917.5" y="-81.8" font-family="Times New Roman,serif" font-size="14.00">7977,91</text>
</g>
<!-- Diortroulamax&#45;&gt;Gorflimrox -->
<g id="edge38" class="edge">
<title>Diortroulamax&#45;&gt;Gorflimrox</title>
<path fill="none" stroke="black" d="M2013.27,-147.83C2001.08,-138.88 1986.22,-127.96 1973.07,-118.3"/>
<polygon fill="black" stroke="black" points="1974.85,-115.26 1964.72,-112.16 1970.71,-120.9 1974.85,-115.26"/>
</g>
<!-- Klocraumitex -->
<g id="node40" class="node">
<title>Klocraumitex</title>
<polygon fill="none" stroke="black" points="2088.5,-112 1997.5,-112 1997.5,-74 2088.5,-74 2088.5,-112"/>
<text text-anchor="start" x="2005.5" y="-96.8" font-family="Times New Roman,serif" font-size="14.00">Klocraumitex</text>
<text text-anchor="start" x="2020.5" y="-81.8" font-family="Times New Roman,serif" font-size="14.00">9151,91</text>
</g>
<!-- Diortroulamax&#45;&gt;Klocraumitex -->
<g id="edge39" class="edge">
<title>Diortroulamax&#45;&gt;Klocraumitex</title>
<path fill="none" stroke="black" d="M2039.26,-147.83C2039.8,-140.13 2040.43,-130.97 2041.03,-122.42"/>
<polygon fill="black" stroke="black" points="2044.52,-122.63 2041.72,-112.41 2037.54,-122.15 2044.52,-122.63"/>
</g>
<!-- Altvinrenlex -->
<g id="node43" class="node">
<title>Altvinrenlex</title>
<polygon fill="none" stroke="black" points="2200.5,-112 2117.5,-112 2117.5,-74 2200.5,-74 2200.5,-112"/>
<text text-anchor="start" x="2125.5" y="-96.8" font-family="Times New Roman,serif" font-size="14.00">Altvinrenlex</text>
<text text-anchor="start" x="2136.5" y="-81.8" font-family="Times New Roman,serif" font-size="14.00">7957,46</text>
</g>
<!-- Stropmanpaneepex&#45;&gt;Altvinrenlex -->
<g id="edge42" class="edge">
<title>Stropmanpaneepex&#45;&gt;Altvinrenlex</title>
<path fill="none" stroke="black" d="M2244.98,-147.83C2230.27,-138.62 2212.24,-127.33 2196.49,-117.47"/>
<polygon fill="black" stroke="black" points="2198.34,-114.5 2188.01,-112.16 2194.63,-120.44 2198.34,-114.5"/>
</g>
<!-- Gorumirentrax -->
<g id="node44" class="node">
<title>Gorumirentrax</title>
<polygon fill="none" stroke="black" points="2317,-112 2219,-112 2219,-74 2317,-74 2317,-112"/>
<text text-anchor="start" x="2227" y="-96.8" font-family="Times New Roman,serif" font-size="14.00">Gorumirentrax</text>
<text text-anchor="start" x="2245.5" y="-81.8" font-family="Times New Roman,serif" font-size="14.00">7661,46</text>
</g>
<!-- Stropmanpaneepex&#45;&gt;Gorumirentrax -->
<g id="edge43" class="edge">
<title>Stropmanpaneepex&#45;&gt;Gorumirentrax</title>
<path fill="none" stroke="black" d="M2272.49,-147.83C2271.84,-140.13 2271.08,-130.97 2270.37,-122.42"/>
<polygon fill="black" stroke="black" points="2273.85,-122.09 2269.53,-112.41 2266.88,-122.67 2273.85,-122.09"/>
</g>
<!-- Specgacrifux -->
<g id="node45" class="node">
<title>Specgacrifux</title>
<polygon fill="none" stroke="black" points="2425,-112 2335,-112 2335,-74 2425,-74 2425,-112"/>
<text text-anchor="start" x="2343" y="-96.8" font-family="Times New Roman,serif" font-size="14.00">Specgacrifux</text>
<text text-anchor="start" x="2357.5" y="-81.8" font-family="Times New Roman,serif" font-size="14.00">7950,46</text>
</g>
<!-- Stropmanpaneepex&#45;&gt;Specgacrifux -->
<g id="edge44" class="edge">
<title>Stropmanpaneepex&#45;&gt;Specgacrifux</title>
<path fill="none" stroke="black" d="M2300.75,-147.83C2314.06,-138.79 2330.32,-127.75 2344.64,-118.02"/>
<polygon fill="black" stroke="black" points="2346.95,-120.68 2353.26,-112.16 2343.02,-114.89 2346.95,-120.68"/>
</g>
<!-- Thorbarrox -->
<g id="node46" class="node">
<title>Thorbarrox</title>
<polygon fill="none" stroke="black" points="2524.5,-112 2443.5,-112 2443.5,-74 2524.5,-74 2524.5,-112"/>
<text text-anchor="start" x="2451.5" y="-96.8" font-family="Times New Roman,serif" font-size="14.00">Thorbarrox</text>
<text text-anchor="start" x="2461.5" y="-81.8" font-family="Times New Roman,serif" font-size="14.00">5044,46</text>
</g>
<!-- Stropmanpaneepex&#45;&gt;Thorbarrox -->
<g id="edge45" class="edge">
<title>Stropmanpaneepex&#45;&gt;Thorbarrox</title>
<path fill="none" stroke="black" d="M2328.52,-147.9C2357.26,-138.29 2393.32,-126.12 2433.82,-112.03"/>
<polygon fill="black" stroke="black" points="2435.07,-115.3 2443.37,-108.71 2432.77,-108.69 2435.07,-115.3"/>
</g>
<!-- Altmonscatex -->
<g id="node47" class="node">
<title>Altmonscatex</title>
<polygon fill="none" stroke="black" points="2479.5,-38 2386.5,-38 2386.5,0 2479.5,0 2479.5,-38"/>
<text text-anchor="start" x="2394.5" y="-22.8" font-family="Times New Roman,serif" font-size="14.00">Altmonscatex</text>
<text text-anchor="start" x="2410.5" y="-7.8" font-family="Times New Roman,serif" font-size="14.00">5697,23</text>
</g>
<!-- Thorbarrox&#45;&gt;Altmonscatex -->
<g id="edge46" class="edge">
<title>Thorbarrox&#45;&gt;Altmonscatex</title>
<path fill="none" stroke="black" d="M2471.13,-73.83C2465.32,-65.62 2458.33,-55.76 2451.94,-46.73"/>
<polygon fill="black" stroke="black" points="2454.68,-44.55 2446.04,-38.41 2448.97,-48.6 2454.68,-44.55"/>
</g>
<!-- Kraumifux -->
<g id="node48" class="node">
<title>Kraumifux</title>
<polygon fill="none" stroke="black" points="2572.5,-38 2497.5,-38 2497.5,0 2572.5,0 2572.5,-38"/>
<text text-anchor="start" x="2505.5" y="-22.8" font-family="Times New Roman,serif" font-size="14.00">Kraumifux</text>
<text text-anchor="start" x="2512.5" y="-7.8" font-family="Times New Roman,serif" font-size="14.00">6726,23</text>
</g>
<!-- Thorbarrox&#45;&gt;Kraumifux -->
<g id="edge47" class="edge">
<title>Thorbarrox&#45;&gt;Kraumifux</title>
<path fill="none" stroke="black" d="M2496.87,-73.83C2502.68,-65.62 2509.67,-55.76 2516.06,-46.73"/>
<polygon fill="black" stroke="black" points="2519.03,-48.6 2521.96,-38.41 2513.32,-44.55 2519.03,-48.6"/>
</g>
</g>
</svg>
